<?xml version="1.0" encoding="UTF-8" standalone="no"?>
<!-- Created with Inkscape (http://www.inkscape.org/) -->

<svg
   width="512"
   height="512"
   viewBox="0 0 135.46667 135.46667"
   version="1.1"
   id="svg5"
   xml:space="preserve"
   inkscape:export-filename="favicon2.png"
   inkscape:export-xdpi="48"
   inkscape:export-ydpi="48"
   xmlns:inkscape="http://www.inkscape.org/namespaces/inkscape"
   xmlns:sodipodi="http://sodipodi.sourceforge.net/DTD/sodipodi-0.dtd"
   xmlns="http://www.w3.org/2000/svg"
   xmlns:svg="http://www.w3.org/2000/svg"><sodipodi:namedview
     id="namedview7"
     pagecolor="#ffffff"
     bordercolor="#000000"
     borderopacity="0.25"
     inkscape:showpageshadow="2"
     inkscape:pageopacity="0.0"
     inkscape:pagecheckerboard="0"
     inkscape:deskcolor="#d1d1d1"
     inkscape:document-units="mm"
     showgrid="false" /><defs
     id="defs2" /><g
     inkscape:label="Camada 1"
     inkscape:groupmode="layer"
     id="layer1"><g
       id="g2239"
       transform="matrix(1.3521266,0,0,1.3521266,15.105389,13.886801)"><path
         style="fill:#373435;fill-opacity:1;stroke:#2e2c2c;stroke-width:0.554682;stroke-linecap:round;stroke-linejoin:round;stroke-dasharray:none;stroke-dashoffset:0.266247;stroke-opacity:1;paint-order:stroke fill markers"
         d="M 9.5505947,80.145761 C -2.6466743,77.067506 -8.7427543,65.681716 -4.3807943,54.125796 l 0.446,-1.181547 -1.62761,-1.627608 C -19.220164,37.65888 1.3121657,20.26078 20.170685,29.511674 l 1.624256,0.796766 1.947619,-2.004808 c 2.417395,-2.488375 2.341682,-2.155127 1.005178,-4.424299 -5.405855,-9.178308 -9.072043,-11.585185 -17.1472553,-11.257295 -2.081537,0.08452 -2.152157,0.06785 -2.151547,-0.507923 6e-4,-0.587537 0.0464,-0.59527 3.506347,-0.592172 7.7828013,0.007 11.2747563,2.324441 16.2423033,10.779357 0.833374,1.418428 1.600552,2.680067 1.70484,2.803641 0.104291,0.123576 0.956262,-0.141203 1.893271,-0.588396 2.315572,-1.10512 4.646245,-1.612085 7.432694,-1.61675 l 2.336125,-0.0039 -0.155858,-0.727604 C 37.20551,16.551508 37.891183,8.2232506 39.799665,5.27298 c 2.075281,-3.208115 8.323827,-7.5306738 9.01613,-6.23709125 0.223742,0.4180655 -0.07172,0.6681126 -2.237848,1.8938821 C 40.424812,4.4117084 38.784472,7.8098392 39.16747,16.281313 c 0.296698,6.562586 0.320241,6.659966 1.707163,7.060635 0.638844,0.184558 1.377754,0.404186 1.642023,0.488061 0.373523,0.118552 0.627748,-0.138104 1.141981,-1.152898 9.826607,-19.3918713 38.574529,-17.3730027 33.924935,2.38243 l -0.353553,1.502191 1.349873,0.872714 c 18.617862,12.036763 6.89066,38.562923 -15.015824,33.964812 -1.143008,-0.239914 -2.110698,-0.399053 -2.15042,-0.353642 -0.03972,0.04541 -0.275894,0.791858 -0.524825,1.658768 -3.647355,12.701962 -17.445305,17.268945 -29.091875,9.629118 -2.804084,-1.839399 -2.488994,-1.809747 -3.431688,-0.322929 -1.511168,2.383416 -6.7743,6.295974 -10.013636,7.444033 -1.886225,0.668498 -7.228462,1.088038 -8.8010293,0.691165 z M 15.56051,78.869704 C 23.347055,77.481266 29.205812,71.362965 26.242039,67.71498 17.803563,57.328403 15.340827,44.155913 20.015067,34.408648 21.548331,31.211315 21.268293,30.835223 16.296501,29.414553 -1.5854443,24.304865 -16.091784,38.419898 -4.9655643,50.103087 l 1.42857,1.500087 0.72296,-0.926041 c 3.08214003,-3.947906 8.42583,-5.213009 11.174366,-2.645495 3.3029003,3.08537 -3.931076,7.49636 -9.798076,5.974479 -0.7955,-0.206351 -1.46375,-0.355179 -1.485,-0.330729 -0.49553,0.570227 -1.23231,4.317079 -1.34807,6.855552 -0.53228,11.671344 8.80412,20.305052 19.8313243,18.338764 z m 25.475503,-9.278497 c 8.87576,-1.34089 18.555709,-6.671881 19.418335,-10.694164 1.076476,-5.019437 0.659252,-6.500132 -1.451176,-5.150106 -7.004238,4.480554 -20.724395,8.579775 -30.187158,9.019121 -4.434229,0.205878 -4.423296,0.198498 -3.114947,2.103175 3.723497,5.420625 6.023147,6.128737 15.334946,4.721974 z m 32.64587,-9.266015 C 82.550433,58.234656 88.211586,48.805589 85.90811,39.961508 84.453542,34.376763 77.903535,26.310872 76.460204,28.327045 c -3.347734,4.676412 -11.078121,6.298659 -11.840883,2.48485 -0.709046,-3.545221 5.101244,-6.74179 9.886485,-5.439116 1.839098,0.500652 1.920372,0.410644 2.061771,-2.283367 C 77.480651,5.6930694 54.231403,5.7747516 44.743746,23.201222 l -0.670409,1.231376 1.92092,1.055269 C 56.80109,31.424654 63.516363,45.098359 61.95697,57.9913 l -0.196617,1.625626 0.895119,0.295416 c 2.509777,0.828302 8.338196,1.046527 11.026411,0.41285 z M 33.627679,53.451267 C 42.709458,52.041083 51.70137,48.470664 57.042607,44.153905 58.93569,42.623923 58.929795,42.686756 57.45473,39.760224 54.314819,33.530639 49.717633,28.712479 44.738833,26.43311 c -1.659887,-0.759923 -1.795907,-0.73891 -5.641885,0.871524 -3.401664,1.424389 -8.935602,3.282555 -12.976641,4.35725 -3.938175,1.047338 -3.763153,0.932379 -4.889273,3.211465 -2.49473,5.048943 -2.932422,13.406706 -0.972119,18.562694 l 0.289791,0.762207 5.21657,-0.168074 c 2.869112,-0.09244 6.407195,-0.352949 7.862403,-0.578909 z m -0.69066,-6.338011 c -1.987963,-0.7317 -3.187388,-1.684869 -2.868933,-2.279906 0.158472,-0.296106 0.369364,-0.4967 0.468651,-0.445765 6.25895,3.210737 11.135945,2.194443 13.282672,-2.767914 0.660566,-1.526958 0.881316,-1.710349 1.5494,-1.287177 0.814133,0.515683 -1.160913,4.026138 -3.095245,5.501505 -2.052298,1.565338 -6.794098,2.215041 -9.336545,1.279257 z m -7.664067,-6.469938 c -0.604663,-0.60466 -0.773398,-1.011361 -0.773398,-1.864108 0,-2.522305 3.088254,-3.537315 4.600371,-1.511996 1.87978,2.517759 -1.608238,5.594839 -3.826973,3.376104 z m 18.114709,-4.767563 c -1.727933,-0.729128 -2.210339,-2.975425 -0.916791,-4.268973 1.831123,-1.831125 4.879419,-0.267906 4.405341,2.259137 -0.2907,1.549572 -2.10381,2.594147 -3.48855,2.009836 z M 4.5737557,52.376445 c 4.421123,-1.229693 4.189803,-4.186007 -0.31483,-4.023518 -2.77527,0.100108 -7.38647,3.095723 -6.35423,4.12796 0.60627,0.606269 4.32311,0.548061 6.66906,-0.104442 z M 72.104072,30.422121 c 1.39152,-0.757362 3.564686,-2.909572 3.326707,-3.294631 -0.910612,-1.473401 -6.498935,-0.636074 -8.551503,1.281313 -2.691432,2.514174 1.404593,4.092533 5.224796,2.013318 z"
         id="path422" /><path
         style="fill:#f6dc25;fill-opacity:1;stroke:#f6dc25;stroke-width:1.1181;stroke-linecap:round;stroke-linejoin:round;stroke-dasharray:none;stroke-opacity:1"
         d="m 77.234313,202.91276 c -2.459864,-5.88729 -4.35142,-15.69634 -4.956531,-25.70311 -0.619112,-10.23831 1.338719,-25.7352 4.531089,-35.86507 1.550114,-4.91875 5.143056,-12.77098 6.894028,-15.06662 1.822382,-2.38927 4.004982,-3.31526 14.892014,-6.31808 18.003377,-4.96563 33.544847,-10.19765 50.231577,-16.91039 12.75497,-5.131081 14.29167,-5.376473 19.46092,-3.107673 19.05806,8.364633 36.76729,26.948953 48.9347,51.352773 3.99447,8.0116 4.18,8.68964 2.93699,10.7336 -3.09399,5.08764 -22.21724,17.12502 -37.83443,23.81537 -22.71342,9.73034 -46.58446,15.68007 -69.28564,17.26908 -6.16919,0.43183 -29.648151,1.4669 -33.714771,1.48633 -1.110908,0.005 -1.521651,-0.32609 -2.089946,-1.68621 z m 71.383847,-24.63453 c 8.37616,-2.15333 12.81911,-5.06196 17.84346,-11.68141 5.4296,-7.15337 7.1416,-13.15625 4.21799,-14.78981 -1.24657,-0.69651 -1.41892,-0.67926 -2.31085,0.2313 -0.53009,0.54117 -2.08599,3.22461 -3.45755,5.9632 -1.65908,3.31271 -3.49744,6.07462 -5.49258,8.25197 -8.72396,9.52066 -22.96879,10.70815 -39.44696,3.28843 -2.49059,-1.12145 -4.8491,-1.91591 -5.24114,-1.76547 -0.39204,0.15044 -0.97159,0.84151 -1.28789,1.5357 -0.48465,1.06371 -0.41834,1.47336 0.42177,2.60536 2.12728,2.86637 9.26826,6.53871 14.56271,7.48905 4.55911,0.81835 14.85731,0.24286 20.19104,-1.12832 z m -42.05997,-22.84854 c 3.83697,-1.91204 5.24679,-4.28485 5.24679,-8.83065 0,-3.08917 -0.17872,-3.79148 -1.42096,-5.58404 -2.05977,-2.97224 -5.89682,-4.76447 -9.32993,-4.35787 -4.782287,0.56639 -8.150291,4.15729 -8.635504,9.207 -0.297652,3.09773 0.516221,5.40256 2.702712,7.65392 3.380163,3.48045 7.055822,4.09482 11.436892,1.91164 z m 66.08276,-20.74228 c 6.02718,-3.72403 6.55149,-12.46927 0.98915,-16.4986 -3.45168,-2.50039 -8.7746,-2.43328 -12.27511,0.15476 -4.83859,3.57733 -5.10981,10.83477 -0.5744,15.37018 3.18406,3.18406 7.68492,3.55355 11.86036,0.97366 z"
         id="path1875"
         transform="scale(0.26458333)" /><path
         style="fill:#f6dc25;fill-opacity:1;stroke:#f6dc25;stroke-width:1.1181;stroke-linecap:round;stroke-linejoin:round;stroke-dasharray:none;stroke-opacity:1"
         d="m 124.8354,264.79138 c -7.7158,-0.81865 -13.31751,-3.598 -19.02197,-9.43795 -3.70957,-3.79768 -8.990207,-10.67922 -10.567862,-13.77168 -1.519777,-2.97901 -0.772451,-3.25051 10.810662,-3.92741 38.84216,-2.26989 84.1815,-15.18797 114.36104,-32.58374 6.84823,-3.94738 7.89254,-4.11095 9.27227,-1.45227 1.07381,2.0692 0.88752,6.19228 -0.66083,14.62597 -1.3118,7.14515 -2.71893,9.81934 -7.88729,14.98942 -10.85587,10.85948 -31.52821,21.23298 -53.67894,26.93639 -7.21725,1.85831 -20.11965,3.85923 -29.93753,4.64276 -6.97522,0.55666 -7.24478,0.5562 -12.68955,-0.0215 z"
         id="path1877"
         transform="scale(0.26458333)" /><path
         style="fill:#ddeafd;fill-opacity:1;stroke:#ddeafd;stroke-width:0.838574;stroke-linecap:round;stroke-linejoin:round;stroke-dasharray:none;stroke-opacity:1"
         d="m 252.48673,228.78226 c -6.13629,-0.54105 -10.27952,-1.22994 -15.07747,-2.5069 l -3.72421,-0.9912 0.64793,-5.03288 c 0.95377,-7.40849 0.91024,-22.97018 -0.0859,-30.70112 -5.27495,-40.93899 -28.64625,-76.45424 -62.22329,-94.555129 -2.57761,-1.389546 -4.68655,-2.748843 -4.68655,-3.020665 0,-1.366296 6.57365,-12.041836 11.04153,-17.931336 24.34939,-32.09704 67.10221,-45.099686 92.5854,-28.158498 8.64931,5.750055 14.51508,14.677249 17.18787,26.158492 0.97626,4.193637 1.12315,20.383113 0.20524,22.621301 -0.80144,1.954188 -1.64259,2.096513 -6.17557,1.04491 -5.25401,-1.218867 -14.07832,-1.242556 -18.58853,-0.0499 -5.47032,1.446549 -11.24199,4.596535 -14.5845,7.959735 -4.01501,4.03987 -4.9135,5.99469 -4.9135,10.69017 0,3.1777 0.18506,4.00869 1.23405,5.54117 0.67873,0.99157 2.3447,2.41913 3.70215,3.17237 2.30427,1.2786 5.37027,1.69291 8.14473,1.71673 3.51892,0.0302 6.14989,-0.54608 10.36603,-1.9997 8.07203,-2.78302 15.43664,-7.72392 20.00791,-13.42325 1.25581,-1.56571 2.6965,-2.95479 3.20152,-3.08686 1.61824,-0.42318 5.68003,1.91655 9.3724,5.39882 7.2157,6.80513 13.93672,16.24847 19.27251,27.07875 5.52388,11.21208 7.25338,19.08629 6.72199,30.60446 -0.73171,15.86037 -7.29406,30.50558 -18.80729,41.97222 -4.88149,4.86172 -8.88027,7.87402 -14.59441,10.99397 -4.29076,2.34279 -12.67268,5.25317 -17.21784,5.9784 -4.61648,0.73662 -17.32786,1.02712 -23.01221,0.52593 z"
         id="path2224"
         transform="scale(0.26458333)"
         sodipodi:nodetypes="sscscssssssssssssasssssssssss" /><path
         style="fill:#ddeafd;fill-opacity:1;stroke:#ddeafd;stroke-width:0.838574;stroke-linecap:round;stroke-linejoin:round;stroke-dasharray:none;stroke-opacity:1"
         d="M 37.761945,298.20399 C 28.364098,296.64249 18.75619,292.75877 11.459547,287.572 -1.3207766,278.4872 -10.320482,264.77228 -14.15463,248.53777 c -1.806215,-7.64785 -2.110125,-19.93861 -0.723333,-29.2531 1.063935,-7.146 2.730377,-14.08727 3.693459,-15.38445 0.514161,-0.69253 0.993755,-0.66269 4.7674414,0.29664 5.8623722,1.49029 15.82439,1.4834 21.4724786,-0.0149 5.449177,-1.44549 12.408013,-4.97292 15.44897,-7.83106 2.688808,-2.52717 4.520968,-5.88338 4.520968,-8.28166 0,-3.73746 -3.27788,-7.69153 -8.347339,-10.0693 -2.514497,-1.17939 -6.06606,-1.39525 -9.154498,-1.43324 -3.369614,-0.0414 -6.829896,0.1615 -10.0233781,1.31758 -1.9834736,0.71803 -5.2043454,2.41291 -7.15749293,3.56921 -3.35749697,1.98769 -10.24146707,8.2933 -12.61151297,11.55195 l -1.077045,1.48086 -4.426839,-4.64553 c -10.350827,-10.86217 -15.287873,-21.56517 -15.296344,-33.16084 -0.01485,-20.33279 16.897693,-38.67043 42.4478788,-46.02463 13.1765442,-3.79265 29.0481322,-4.26422 43.4385772,-1.29064 7.388241,1.52668 16.703807,4.32658 20.604542,6.19292 6.168386,2.95134 6.333517,4.54517 1.582117,15.2708 -3.415906,7.71092 -5.889709,15.83809 -7.206268,23.6747 -0.720557,4.28901 -0.902357,7.86702 -0.865296,17.0299 0.04122,10.18531 0.20308,12.47301 1.32733,18.75757 2.340742,13.08475 5.996424,24.11319 12.190005,36.7747 4.595278,9.39412 8.331218,15.48047 14.923807,24.31287 2.685876,3.5984 5.204882,7.31193 5.597782,8.25228 0.39291,0.94036 0.70911,3.10519 0.70266,4.81073 -0.0503,13.31255 -19.547328,28.75508 -41.945996,33.22313 -5.295404,1.05632 -17.109819,1.3466 -21.966099,0.53969 z"
         id="path2226"
         transform="scale(0.26458333)"
         sodipodi:nodetypes="ssssssssssassscssssssssssssssss" /><path
         style="fill:#ddeafd;fill-opacity:1;stroke:#ddeafd;stroke-width:0.838574;stroke-linecap:round;stroke-linejoin:round;stroke-dasharray:none;stroke-opacity:1"
         d="m 253.41597,117.27737 c -2.24269,-1.01844 -3.64415,-2.66209 -3.64415,-4.2739 0,-1.63574 2.54114,-5.02167 5.17319,-6.89298 7.16288,-5.09262 22.85126,-7.833041 27.91435,-4.87603 0.89839,0.52468 1.71514,1.19909 1.815,1.49869 0.58644,1.75931 -8.15569,9.8267 -13.54749,12.50185 -6.13081,3.04181 -13.61064,3.90437 -17.7109,2.04237 z"
         id="path2228"
         transform="scale(0.26458333)" /><path
         style="fill:#ddeafd;fill-opacity:1;stroke:#ddeafd;stroke-width:0.838574;stroke-linecap:round;stroke-linejoin:round;stroke-dasharray:none;stroke-opacity:1"
         d="m -5.1830121,199.15027 c -3.9808857,-0.98713 -3.8998084,-2.72014 0.309585,-6.61729 3.4370219,-3.18208 7.6842358,-5.65261 13.3471834,-7.76385 7.0555547,-2.63041 15.9344407,-2.07972 19.2053357,1.19118 1.69492,1.69492 1.808262,2.98717 0.456463,5.20432 -1.802044,2.95561 -9.269204,5.9831 -14.521338,7.3307 -6.0728317,1.55818 -16.0834514,1.32787 -18.7972291,0.65494 z"
         id="path2230"
         transform="scale(0.26458333)"
         sodipodi:nodetypes="sssssas" /></g></g></svg>
