<?xml version="1.0" encoding="UTF-8" standalone="no"?>
<!DOCTYPE svg PUBLIC "-//W3C//DTD SVG 1.1//EN" "http://www.w3.org/Graphics/SVG/1.1/DTD/svg11.dtd">
<svg xmlns="http://www.w3.org/2000/svg" version="1.1" viewBox="0.00 0.00 263.00 151.00">
<path fill="#e6c661" d="
  M 47.17 23.40
  A 23.21 23.21 0.0 0 1 23.96 46.61
  A 23.21 23.21 0.0 0 1 0.75 23.40
  A 23.21 23.21 0.0 0 1 23.96 0.19
  A 23.21 23.21 0.0 0 1 47.17 23.40
  Z
  M 42.77 21.78
  A 13.18 13.18 0.0 0 0 29.59 8.60
  A 13.18 13.18 0.0 0 0 16.41 21.78
  A 13.18 13.18 0.0 0 0 29.59 34.96
  A 13.18 13.18 0.0 0 0 42.77 21.78
  Z"
/>
<path fill="#aac3bb" d="
  M 100.89 23.81
  A 23.20 23.20 0.0 0 1 77.69 47.01
  A 23.20 23.20 0.0 0 1 54.49 23.81
  A 23.20 23.20 0.0 0 1 77.69 0.61
  A 23.20 23.20 0.0 0 1 100.89 23.81
  Z
  M 84.90 21.78
  A 13.20 13.20 0.0 0 0 71.70 8.58
  A 13.20 13.20 0.0 0 0 58.50 21.78
  A 13.20 13.20 0.0 0 0 71.70 34.98
  A 13.20 13.20 0.0 0 0 84.90 21.78
  Z"
/>
<path fill="#b5d990" d="
  M 154.68 24.22
  A 23.23 23.23 0.0 0 1 131.45 47.45
  A 23.23 23.23 0.0 0 1 108.22 24.22
  A 23.23 23.23 0.0 0 1 131.45 0.99
  A 23.23 23.23 0.0 0 1 154.68 24.22
  Z
  M 144.69 30.21
  A 13.21 13.21 0.0 0 0 131.48 17.00
  A 13.21 13.21 0.0 0 0 118.27 30.21
  A 13.21 13.21 0.0 0 0 131.48 43.42
  A 13.21 13.21 0.0 0 0 144.69 30.21
  Z"
/>
<path fill="#b5d990" d="
  M 47.14 75.43
  A 23.19 23.19 0.0 0 1 23.95 98.62
  A 23.19 23.19 0.0 0 1 0.76 75.43
  A 23.19 23.19 0.0 0 1 23.95 52.24
  A 23.19 23.19 0.0 0 1 47.14 75.43
  Z
  M 29.65 80.02
  A 13.19 13.19 0.0 0 0 16.46 66.83
  A 13.19 13.19 0.0 0 0 3.27 80.02
  A 13.19 13.19 0.0 0 0 16.46 93.21
  A 13.19 13.19 0.0 0 0 29.65 80.02
  Z"
/>
<path fill="#bec8df" d="
  M 100.86 75.42
  A 23.18 23.18 0.0 0 1 77.68 98.60
  A 23.18 23.18 0.0 0 1 54.50 75.42
  A 23.18 23.18 0.0 0 1 77.68 52.24
  A 23.18 23.18 0.0 0 1 100.86 75.42
  Z
  M 90.85 75.57
  A 13.25 13.25 0.0 0 0 77.60 62.32
  A 13.25 13.25 0.0 0 0 64.35 75.57
  A 13.25 13.25 0.0 0 0 77.60 88.82
  A 13.25 13.25 0.0 0 0 90.85 75.57
  Z"
/>
<path fill="#b4e682" d="
  M 154.49 75.44
  A 23.21 23.21 0.0 0 1 131.28 98.65
  A 23.21 23.21 0.0 0 1 108.07 75.44
  A 23.21 23.21 0.0 0 1 131.28 52.23
  A 23.21 23.21 0.0 0 1 154.49 75.44
  Z
  M 152.33 75.42
  A 13.19 13.19 0.0 0 0 139.14 62.23
  A 13.19 13.19 0.0 0 0 125.95 75.42
  A 13.19 13.19 0.0 0 0 139.14 88.61
  A 13.19 13.19 0.0 0 0 152.33 75.42
  Z"
/>
<path fill="#e6c661" d="
  M 208.10 75.42
  A 23.20 23.20 0.0 0 1 184.90 98.62
  A 23.20 23.20 0.0 0 1 161.70 75.42
  A 23.20 23.20 0.0 0 1 184.90 52.22
  A 23.20 23.20 0.0 0 1 208.10 75.42
  Z
  M 198.08 66.88
  A 13.17 13.17 0.0 0 0 184.91 53.71
  A 13.17 13.17 0.0 0 0 171.74 66.88
  A 13.17 13.17 0.0 0 0 184.91 80.05
  A 13.17 13.17 0.0 0 0 198.08 66.88
  Z"
/>
<path fill="#b4e682" d="
  M 100.97 127.35
  A 23.26 23.26 0.0 0 1 77.71 150.61
  A 23.26 23.26 0.0 0 1 54.45 127.35
  A 23.26 23.26 0.0 0 1 77.71 104.09
  A 23.26 23.26 0.0 0 1 100.97 127.35
  Z
  M 84.87 133.04
  A 13.17 13.17 0.0 0 0 71.70 119.87
  A 13.17 13.17 0.0 0 0 58.53 133.04
  A 13.17 13.17 0.0 0 0 71.70 146.21
  A 13.17 13.17 0.0 0 0 84.87 133.04
  Z"
/>
<path fill="#94a9d4" d="
  M 154.70 127.37
  A 23.24 23.24 0.0 0 1 131.46 150.61
  A 23.24 23.24 0.0 0 1 108.22 127.37
  A 23.24 23.24 0.0 0 1 131.46 104.13
  A 23.24 23.24 0.0 0 1 154.70 127.37
  Z
  M 138.33 123.73
  A 13.20 13.20 0.0 0 0 125.13 110.53
  A 13.20 13.20 0.0 0 0 111.93 123.73
  A 13.20 13.20 0.0 0 0 125.13 136.93
  A 13.20 13.20 0.0 0 0 138.33 123.73
  Z"
/>
<path fill="#e3d0d6" d="
  M 262.19 127.30
  A 23.17 23.17 0.0 0 1 239.02 150.47
  A 23.17 23.17 0.0 0 1 215.85 127.30
  A 23.17 23.17 0.0 0 1 239.02 104.13
  A 23.17 23.17 0.0 0 1 262.19 127.30
  Z
  M 245.92 133.07
  A 13.26 13.26 0.0 0 0 232.66 119.81
  A 13.26 13.26 0.0 0 0 219.40 133.07
  A 13.26 13.26 0.0 0 0 232.66 146.33
  A 13.26 13.26 0.0 0 0 245.92 133.07
  Z"
/>
<path fill="#aac3bb" d="
  M 47.15 127.37
  A 23.22 23.22 0.0 0 1 23.93 150.59
  A 23.22 23.22 0.0 0 1 0.71 127.37
  A 23.22 23.22 0.0 0 1 23.93 104.15
  A 23.22 23.22 0.0 0 1 47.15 127.37
  Z
  M 37.14 127.40
  A 13.20 13.20 0.0 0 0 23.94 114.20
  A 13.20 13.20 0.0 0 0 10.74 127.40
  A 13.20 13.20 0.0 0 0 23.94 140.60
  A 13.20 13.20 0.0 0 0 37.14 127.40
  Z"
/>
<path fill="#b5d990" d="
  M 208.47 127.36
  A 23.26 23.26 0.0 0 1 185.21 150.62
  A 23.26 23.26 0.0 0 1 161.95 127.36
  A 23.26 23.26 0.0 0 1 185.21 104.10
  A 23.26 23.26 0.0 0 1 208.47 127.36
  Z
  M 204.11 123.74
  A 13.17 13.17 0.0 0 0 190.94 110.57
  A 13.17 13.17 0.0 0 0 177.77 123.74
  A 13.17 13.17 0.0 0 0 190.94 136.91
  A 13.17 13.17 0.0 0 0 204.11 123.74
  Z"
/>
</svg>
