<?xml version="1.0" encoding="UTF-8" standalone="no"?>
<!DOCTYPE svg PUBLIC "-//W3C//DTD SVG 1.1//EN" "http://www.w3.org/Graphics/SVG/1.1/DTD/svg11.dtd">
<svg xmlns="http://www.w3.org/2000/svg" version="1.1" viewBox="0.00 0.00 579.00 151.00">
<path fill="#e5c662" d="
  M 46.77 23.58
  A 23.23 23.23 0.0 0 1 23.54 46.81
  A 23.23 23.23 0.0 0 1 0.31 23.58
  A 23.23 23.23 0.0 0 1 23.54 0.35
  A 23.23 23.23 0.0 0 1 46.77 23.58
  Z
  M 31.85 30.76
  A 13.17 13.17 0.0 0 0 18.68 17.59
  A 13.17 13.17 0.0 0 0 5.51 30.76
  A 13.17 13.17 0.0 0 0 18.68 43.93
  A 13.17 13.17 0.0 0 0 31.85 30.76
  Z"
/>
<path fill="#b5d98f" d="
  M 99.39 23.59
  A 23.24 23.24 0.0 0 1 76.15 46.83
  A 23.24 23.24 0.0 0 1 52.91 23.59
  A 23.24 23.24 0.0 0 1 76.15 0.35
  A 23.24 23.24 0.0 0 1 99.39 23.59
  Z
  M 84.54 18.06
  A 13.22 13.22 0.0 0 0 71.32 4.84
  A 13.22 13.22 0.0 0 0 58.10 18.06
  A 13.22 13.22 0.0 0 0 71.32 31.28
  A 13.22 13.22 0.0 0 0 84.54 18.06
  Z"
/>
<path fill="#e19cc1" d="
  M 152.00 23.60
  A 23.24 23.24 0.0 0 1 128.76 46.84
  A 23.24 23.24 0.0 0 1 105.52 23.60
  A 23.24 23.24 0.0 0 1 128.76 0.36
  A 23.24 23.24 0.0 0 1 152.00 23.60
  Z
  M 141.79 31.27
  A 13.20 13.20 0.0 0 0 128.59 18.07
  A 13.20 13.20 0.0 0 0 115.39 31.27
  A 13.20 13.20 0.0 0 0 128.59 44.47
  A 13.20 13.20 0.0 0 0 141.79 31.27
  Z"
/>
<path fill="#bec8df" d="
  M 204.55 23.59
  A 23.20 23.20 0.0 0 1 181.35 46.79
  A 23.20 23.20 0.0 0 1 158.15 23.59
  A 23.20 23.20 0.0 0 1 181.35 0.39
  A 23.20 23.20 0.0 0 1 204.55 23.59
  Z
  M 190.40 28.74
  A 13.20 13.20 0.0 0 0 177.20 15.54
  A 13.20 13.20 0.0 0 0 164.00 28.74
  A 13.20 13.20 0.0 0 0 177.20 41.94
  A 13.20 13.20 0.0 0 0 190.40 28.74
  Z"
/>
<path fill="#e5c662" d="
  M 257.20 23.60
  A 23.25 23.25 0.0 0 1 233.95 46.85
  A 23.25 23.25 0.0 0 1 210.70 23.60
  A 23.25 23.25 0.0 0 1 233.95 0.35
  A 23.25 23.25 0.0 0 1 257.20 23.60
  Z
  M 242.02 18.05
  A 13.22 13.22 0.0 0 0 228.80 4.83
  A 13.22 13.22 0.0 0 0 215.58 18.05
  A 13.22 13.22 0.0 0 0 228.80 31.27
  A 13.22 13.22 0.0 0 0 242.02 18.05
  Z"
/>
<path fill="#e19cc1" d="
  M 418.99 24.77
  A 23.22 23.22 0.0 0 1 395.77 47.99
  A 23.22 23.22 0.0 0 1 372.55 24.77
  A 23.22 23.22 0.0 0 1 395.77 1.55
  A 23.22 23.22 0.0 0 1 418.99 24.77
  Z
  M 408.79 32.39
  A 13.19 13.19 0.0 0 0 395.60 19.20
  A 13.19 13.19 0.0 0 0 382.41 32.39
  A 13.19 13.19 0.0 0 0 395.60 45.58
  A 13.19 13.19 0.0 0 0 408.79 32.39
  Z"
/>
<path fill="#bec8df" d="
  M 471.56 24.75
  A 23.18 23.18 0.0 0 1 448.38 47.93
  A 23.18 23.18 0.0 0 1 425.20 24.75
  A 23.18 23.18 0.0 0 1 448.38 1.57
  A 23.18 23.18 0.0 0 1 471.56 24.75
  Z
  M 457.48 29.97
  A 13.26 13.26 0.0 0 0 444.22 16.71
  A 13.26 13.26 0.0 0 0 430.96 29.97
  A 13.26 13.26 0.0 0 0 444.22 43.23
  A 13.26 13.26 0.0 0 0 457.48 29.97
  Z"
/>
<path fill="#b5d98f" d="
  M 524.15 24.78
  A 23.21 23.21 0.0 0 1 500.94 47.99
  A 23.21 23.21 0.0 0 1 477.73 24.78
  A 23.21 23.21 0.0 0 1 500.94 1.57
  A 23.21 23.21 0.0 0 1 524.15 24.78
  Z
  M 509.02 19.28
  A 13.16 13.16 0.0 0 0 495.86 6.12
  A 13.16 13.16 0.0 0 0 482.70 19.28
  A 13.16 13.16 0.0 0 0 495.86 32.44
  A 13.16 13.16 0.0 0 0 509.02 19.28
  Z"
/>
<path fill="#b4e682" d="
  M 311.81 25.61
  A 23.25 23.25 0.0 0 1 288.56 48.86
  A 23.25 23.25 0.0 0 1 265.31 25.61
  A 23.25 23.25 0.0 0 1 288.56 2.36
  A 23.25 23.25 0.0 0 1 311.81 25.61
  Z
  M 301.71 30.77
  A 13.16 13.16 0.0 0 0 288.55 17.61
  A 13.16 13.16 0.0 0 0 275.39 30.77
  A 13.16 13.16 0.0 0 0 288.55 43.93
  A 13.16 13.16 0.0 0 0 301.71 30.77
  Z"
/>
<path fill="#aac4bb" d="
  M 364.39 25.60
  A 23.22 23.22 0.0 0 1 341.17 48.82
  A 23.22 23.22 0.0 0 1 317.95 25.60
  A 23.22 23.22 0.0 0 1 341.17 2.38
  A 23.22 23.22 0.0 0 1 364.39 25.60
  Z
  M 357.25 18.07
  A 13.24 13.24 0.0 0 0 344.01 4.83
  A 13.24 13.24 0.0 0 0 330.77 18.07
  A 13.24 13.24 0.0 0 0 344.01 31.31
  A 13.24 13.24 0.0 0 0 357.25 18.07
  Z"
/>
<path fill="#b4e682" d="
  M 578.81 26.77
  A 23.23 23.23 0.0 0 1 555.58 50.00
  A 23.23 23.23 0.0 0 1 532.35 26.77
  A 23.23 23.23 0.0 0 1 555.58 3.54
  A 23.23 23.23 0.0 0 1 578.81 26.77
  Z
  M 568.76 31.96
  A 13.20 13.20 0.0 0 0 555.56 18.76
  A 13.20 13.20 0.0 0 0 542.36 31.96
  A 13.20 13.20 0.0 0 0 555.56 45.16
  A 13.20 13.20 0.0 0 0 568.76 31.96
  Z"
/>
<path fill="#aac4bb" d="
  M 101.22 74.23
  A 23.21 23.21 0.0 0 1 78.01 97.44
  A 23.21 23.21 0.0 0 1 54.80 74.23
  A 23.21 23.21 0.0 0 1 78.01 51.02
  A 23.21 23.21 0.0 0 1 101.22 74.23
  Z
  M 95.78 70.50
  A 13.21 13.21 0.0 0 0 82.57 57.29
  A 13.21 13.21 0.0 0 0 69.36 70.50
  A 13.21 13.21 0.0 0 0 82.57 83.71
  A 13.21 13.21 0.0 0 0 95.78 70.50
  Z"
/>
<path fill="#b5d98f" d="
  M 151.97 74.22
  A 23.23 23.23 0.0 0 1 128.74 97.45
  A 23.23 23.23 0.0 0 1 105.51 74.22
  A 23.23 23.23 0.0 0 1 128.74 50.99
  A 23.23 23.23 0.0 0 1 151.97 74.22
  Z
  M 138.51 79.09
  A 13.21 13.21 0.0 0 0 125.30 65.88
  A 13.21 13.21 0.0 0 0 112.09 79.09
  A 13.21 13.21 0.0 0 0 125.30 92.30
  A 13.21 13.21 0.0 0 0 138.51 79.09
  Z"
/>
<path fill="#b4e682" d="
  M 204.61 74.23
  A 23.25 23.25 0.0 0 1 181.36 97.48
  A 23.25 23.25 0.0 0 1 158.11 74.23
  A 23.25 23.25 0.0 0 1 181.36 50.98
  A 23.25 23.25 0.0 0 1 204.61 74.23
  Z
  M 200.68 70.49
  A 13.19 13.19 0.0 0 0 187.49 57.30
  A 13.19 13.19 0.0 0 0 174.30 70.49
  A 13.19 13.19 0.0 0 0 187.49 83.68
  A 13.19 13.19 0.0 0 0 200.68 70.49
  Z"
/>
<path fill="#94a9d4" d="
  M 257.20 74.23
  A 23.24 23.24 0.0 0 1 233.96 97.47
  A 23.24 23.24 0.0 0 1 210.72 74.23
  A 23.24 23.24 0.0 0 1 233.96 50.99
  A 23.24 23.24 0.0 0 1 257.20 74.23
  Z
  M 242.03 74.18
  A 13.22 13.22 0.0 0 0 228.81 60.96
  A 13.22 13.22 0.0 0 0 215.59 74.18
  A 13.22 13.22 0.0 0 0 228.81 87.40
  A 13.22 13.22 0.0 0 0 242.03 74.18
  Z"
/>
<path fill="#bec8df" d="
  M 311.74 76.21
  A 23.20 23.20 0.0 0 1 288.54 99.41
  A 23.20 23.20 0.0 0 1 265.34 76.21
  A 23.20 23.20 0.0 0 1 288.54 53.01
  A 23.20 23.20 0.0 0 1 311.74 76.21
  Z
  M 307.91 72.49
  A 13.22 13.22 0.0 0 0 294.69 59.27
  A 13.22 13.22 0.0 0 0 281.47 72.49
  A 13.22 13.22 0.0 0 0 294.69 85.71
  A 13.22 13.22 0.0 0 0 307.91 72.49
  Z"
/>
<path fill="#b5d98f" d="
  M 364.39 76.22
  A 23.24 23.24 0.0 0 1 341.15 99.46
  A 23.24 23.24 0.0 0 1 317.91 76.22
  A 23.24 23.24 0.0 0 1 341.15 52.98
  A 23.24 23.24 0.0 0 1 364.39 76.22
  Z
  M 349.23 76.19
  A 13.22 13.22 0.0 0 0 336.01 62.97
  A 13.22 13.22 0.0 0 0 322.79 76.19
  A 13.22 13.22 0.0 0 0 336.01 89.41
  A 13.22 13.22 0.0 0 0 349.23 76.19
  Z"
/>
<path fill="#e5c662" d="
  M 417.01 76.23
  A 23.26 23.26 0.0 0 1 393.75 99.49
  A 23.26 23.26 0.0 0 1 370.49 76.23
  A 23.26 23.26 0.0 0 1 393.75 52.97
  A 23.26 23.26 0.0 0 1 417.01 76.23
  Z
  M 413.65 73.39
  A 13.19 13.19 0.0 0 0 400.46 60.20
  A 13.19 13.19 0.0 0 0 387.27 73.39
  A 13.19 13.19 0.0 0 0 400.46 86.58
  A 13.19 13.19 0.0 0 0 413.65 73.39
  Z"
/>
<path fill="#e19cc1" d="
  M 469.61 76.20
  A 23.24 23.24 0.0 0 1 446.37 99.44
  A 23.24 23.24 0.0 0 1 423.13 76.20
  A 23.24 23.24 0.0 0 1 446.37 52.96
  A 23.24 23.24 0.0 0 1 469.61 76.20
  Z
  M 454.74 82.19
  A 13.23 13.23 0.0 0 0 441.51 68.96
  A 13.23 13.23 0.0 0 0 428.28 82.19
  A 13.23 13.23 0.0 0 0 441.51 95.42
  A 13.23 13.23 0.0 0 0 454.74 82.19
  Z"
/>
<path fill="#aac4bb" d="
  M 524.17 77.11
  A 23.22 23.22 0.0 0 1 500.95 100.33
  A 23.22 23.22 0.0 0 1 477.73 77.11
  A 23.22 23.22 0.0 0 1 500.95 53.89
  A 23.22 23.22 0.0 0 1 524.17 77.11
  Z
  M 518.73 73.40
  A 13.20 13.20 0.0 0 0 505.53 60.20
  A 13.20 13.20 0.0 0 0 492.33 73.40
  A 13.20 13.20 0.0 0 0 505.53 86.60
  A 13.20 13.20 0.0 0 0 518.73 73.40
  Z"
/>
<path fill="#bec8df" d="
  M 573.77 78.21
  A 23.20 23.20 0.0 0 1 550.57 101.41
  A 23.20 23.20 0.0 0 1 527.37 78.21
  A 23.20 23.20 0.0 0 1 550.57 55.01
  A 23.20 23.20 0.0 0 1 573.77 78.21
  Z
  M 563.80 73.40
  A 13.22 13.22 0.0 0 0 550.58 60.18
  A 13.22 13.22 0.0 0 0 537.36 73.40
  A 13.22 13.22 0.0 0 0 550.58 86.62
  A 13.22 13.22 0.0 0 0 563.80 73.40
  Z"
/>
<path fill="#e5c662" d="
  M 154.97 124.78
  A 23.24 23.24 0.0 0 1 131.73 148.02
  A 23.24 23.24 0.0 0 1 108.49 124.78
  A 23.24 23.24 0.0 0 1 131.73 101.54
  A 23.24 23.24 0.0 0 1 154.97 124.78
  Z
  M 151.65 122.00
  A 13.19 13.19 0.0 0 0 138.46 108.81
  A 13.19 13.19 0.0 0 0 125.27 122.00
  A 13.19 13.19 0.0 0 0 138.46 135.19
  A 13.19 13.19 0.0 0 0 151.65 122.00
  Z"
/>
<path fill="#e19cc1" d="
  M 207.58 124.78
  A 23.22 23.22 0.0 0 1 184.36 148.00
  A 23.22 23.22 0.0 0 1 161.14 124.78
  A 23.22 23.22 0.0 0 1 184.36 101.56
  A 23.22 23.22 0.0 0 1 207.58 124.78
  Z
  M 191.63 128.77
  A 13.19 13.19 0.0 0 0 178.44 115.58
  A 13.19 13.19 0.0 0 0 165.25 128.77
  A 13.19 13.19 0.0 0 0 178.44 141.96
  A 13.19 13.19 0.0 0 0 191.63 128.77
  Z"
/>
<path fill="#aac4bb" d="
  M 262.14 125.69
  A 23.21 23.21 0.0 0 1 238.93 148.90
  A 23.21 23.21 0.0 0 1 215.72 125.69
  A 23.21 23.21 0.0 0 1 238.93 102.48
  A 23.21 23.21 0.0 0 1 262.14 125.69
  Z
  M 256.69 122.00
  A 13.19 13.19 0.0 0 0 243.50 108.81
  A 13.19 13.19 0.0 0 0 230.31 122.00
  A 13.19 13.19 0.0 0 0 243.50 135.19
  A 13.19 13.19 0.0 0 0 256.69 122.00
  Z"
/>
<path fill="#94a9d4" d="
  M 311.76 126.80
  A 23.22 23.22 0.0 0 1 288.54 150.02
  A 23.22 23.22 0.0 0 1 265.32 126.80
  A 23.22 23.22 0.0 0 1 288.54 103.58
  A 23.22 23.22 0.0 0 1 311.76 126.80
  Z
  M 301.76 122.02
  A 13.21 13.21 0.0 0 0 288.55 108.81
  A 13.21 13.21 0.0 0 0 275.34 122.02
  A 13.21 13.21 0.0 0 0 288.55 135.23
  A 13.21 13.21 0.0 0 0 301.76 122.02
  Z"
/>
</svg>
