<?xml version="1.0" encoding="UTF-8" standalone="no"?>
<!DOCTYPE svg PUBLIC "-//W3C//DTD SVG 1.1//EN" "http://www.w3.org/Graphics/SVG/1.1/DTD/svg11.dtd">
<svg xmlns="http://www.w3.org/2000/svg" version="1.1" viewBox="0.00 0.00 260.00 159.00">
<path fill="#e5c662" d="
  M 98.11 24.22
  A 23.24 23.24 0.0 0 1 74.87 47.46
  A 23.24 23.24 0.0 0 1 51.63 24.22
  A 23.24 23.24 0.0 0 1 74.87 0.98
  A 23.24 23.24 0.0 0 1 98.11 24.22
  Z
  M 88.06 24.75
  A 13.18 13.18 0.0 0 0 74.88 11.57
  A 13.18 13.18 0.0 0 0 61.70 24.75
  A 13.18 13.18 0.0 0 0 74.88 37.93
  A 13.18 13.18 0.0 0 0 88.06 24.75
  Z"
/>
<path fill="#b4e682" d="
  M 151.72 24.22
  A 23.25 23.25 0.0 0 1 128.47 47.47
  A 23.25 23.25 0.0 0 1 105.22 24.22
  A 23.25 23.25 0.0 0 1 128.47 0.97
  A 23.25 23.25 0.0 0 1 151.72 24.22
  Z
  M 133.77 24.25
  A 13.17 13.17 0.0 0 0 120.60 11.08
  A 13.17 13.17 0.0 0 0 107.43 24.25
  A 13.17 13.17 0.0 0 0 120.60 37.42
  A 13.17 13.17 0.0 0 0 133.77 24.25
  Z"
/>
<path fill="#b5d990" d="
  M 259.07 24.23
  A 23.25 23.25 0.0 0 1 235.82 47.48
  A 23.25 23.25 0.0 0 1 212.57 24.23
  A 23.25 23.25 0.0 0 1 235.82 0.98
  A 23.25 23.25 0.0 0 1 259.07 24.23
  Z
  M 256.51 19.61
  A 13.19 13.19 0.0 0 0 243.32 6.42
  A 13.19 13.19 0.0 0 0 230.13 19.61
  A 13.19 13.19 0.0 0 0 243.32 32.80
  A 13.19 13.19 0.0 0 0 256.51 19.61
  Z"
/>
<path fill="#bec8df" d="
  M 205.26 24.24
  A 23.19 23.19 0.0 0 1 182.07 47.43
  A 23.19 23.19 0.0 0 1 158.88 24.24
  A 23.19 23.19 0.0 0 1 182.07 1.05
  A 23.19 23.19 0.0 0 1 205.26 24.24
  Z
  M 195.38 24.01
  A 13.25 13.25 0.0 0 0 182.13 10.76
  A 13.25 13.25 0.0 0 0 168.88 24.01
  A 13.25 13.25 0.0 0 0 182.13 37.26
  A 13.25 13.25 0.0 0 0 195.38 24.01
  Z"
/>
<path fill="#b5d990" d="
  M 151.52 75.41
  A 23.20 23.20 0.0 0 1 128.32 98.61
  A 23.20 23.20 0.0 0 1 105.12 75.41
  A 23.20 23.20 0.0 0 1 128.32 52.21
  A 23.20 23.20 0.0 0 1 151.52 75.41
  Z
  M 141.52 69.40
  A 13.18 13.18 0.0 0 0 128.34 56.22
  A 13.18 13.18 0.0 0 0 115.16 69.40
  A 13.18 13.18 0.0 0 0 128.34 82.58
  A 13.18 13.18 0.0 0 0 141.52 69.40
  Z"
/>
<path fill="#aac3bb" d="
  M 205.28 75.86
  A 23.22 23.22 0.0 0 1 182.06 99.08
  A 23.22 23.22 0.0 0 1 158.84 75.86
  A 23.22 23.22 0.0 0 1 182.06 52.64
  A 23.22 23.22 0.0 0 1 205.28 75.86
  Z
  M 201.28 77.84
  A 13.24 13.24 0.0 0 0 188.04 64.60
  A 13.24 13.24 0.0 0 0 174.80 77.84
  A 13.24 13.24 0.0 0 0 188.04 91.08
  A 13.24 13.24 0.0 0 0 201.28 77.84
  Z"
/>
<path fill="#e5c662" d="
  M 259.05 76.24
  A 23.24 23.24 0.0 0 1 235.81 99.48
  A 23.24 23.24 0.0 0 1 212.57 76.24
  A 23.24 23.24 0.0 0 1 235.81 53.00
  A 23.24 23.24 0.0 0 1 259.05 76.24
  Z
  M 243.38 77.83
  A 13.22 13.22 0.0 0 0 230.16 64.61
  A 13.22 13.22 0.0 0 0 216.94 77.83
  A 13.22 13.22 0.0 0 0 230.16 91.05
  A 13.22 13.22 0.0 0 0 243.38 77.83
  Z"
/>
<path fill="#e5c662" d="
  M 46.66 78.71
  A 23.25 23.25 0.0 0 1 23.41 101.96
  A 23.25 23.25 0.0 0 1 0.16 78.71
  A 23.25 23.25 0.0 0 1 23.41 55.46
  A 23.25 23.25 0.0 0 1 46.66 78.71
  Z
  M 30.92 80.28
  A 13.18 13.18 0.0 0 0 17.74 67.10
  A 13.18 13.18 0.0 0 0 4.56 80.28
  A 13.18 13.18 0.0 0 0 17.74 93.46
  A 13.18 13.18 0.0 0 0 30.92 80.28
  Z"
/>
<path fill="#e5c662" d="
  M 100.26 78.71
  A 23.24 23.24 0.0 0 1 77.02 101.95
  A 23.24 23.24 0.0 0 1 53.78 78.71
  A 23.24 23.24 0.0 0 1 77.02 55.47
  A 23.24 23.24 0.0 0 1 100.26 78.71
  Z
  M 84.55 80.27
  A 13.18 13.18 0.0 0 0 71.37 67.09
  A 13.18 13.18 0.0 0 0 58.19 80.27
  A 13.18 13.18 0.0 0 0 71.37 93.45
  A 13.18 13.18 0.0 0 0 84.55 80.27
  Z"
/>
<path fill="#b5d990" d="
  M 97.96 135.10
  A 23.25 23.25 0.0 0 1 74.71 158.35
  A 23.25 23.25 0.0 0 1 51.46 135.10
  A 23.25 23.25 0.0 0 1 74.71 111.85
  A 23.25 23.25 0.0 0 1 97.96 135.10
  Z
  M 93.89 137.07
  A 13.21 13.21 0.0 0 0 80.68 123.86
  A 13.21 13.21 0.0 0 0 67.47 137.07
  A 13.21 13.21 0.0 0 0 80.68 150.28
  A 13.21 13.21 0.0 0 0 93.89 137.07
  Z"
/>
<path fill="#aac3bb" d="
  M 151.57 135.09
  A 23.24 23.24 0.0 0 1 128.33 158.33
  A 23.24 23.24 0.0 0 1 105.09 135.09
  A 23.24 23.24 0.0 0 1 128.33 111.85
  A 23.24 23.24 0.0 0 1 151.57 135.09
  Z
  M 147.50 137.06
  A 13.21 13.21 0.0 0 0 134.29 123.85
  A 13.21 13.21 0.0 0 0 121.08 137.06
  A 13.21 13.21 0.0 0 0 134.29 150.27
  A 13.21 13.21 0.0 0 0 147.50 137.06
  Z"
/>
<path fill="#bec8df" d="
  M 205.33 135.08
  A 23.19 23.19 0.0 0 1 182.14 158.27
  A 23.19 23.19 0.0 0 1 158.95 135.08
  A 23.19 23.19 0.0 0 1 182.14 111.89
  A 23.19 23.19 0.0 0 1 205.33 135.08
  Z
  M 201.39 137.08
  A 13.28 13.28 0.0 0 0 188.11 123.80
  A 13.28 13.28 0.0 0 0 174.83 137.08
  A 13.28 13.28 0.0 0 0 188.11 150.36
  A 13.28 13.28 0.0 0 0 201.39 137.08
  Z"
/>
<path fill="#b5d990" d="
  M 259.04 135.10
  A 23.24 23.24 0.0 0 1 235.80 158.34
  A 23.24 23.24 0.0 0 1 212.56 135.10
  A 23.24 23.24 0.0 0 1 235.80 111.86
  A 23.24 23.24 0.0 0 1 259.04 135.10
  Z
  M 256.51 130.49
  A 13.18 13.18 0.0 0 0 243.33 117.31
  A 13.18 13.18 0.0 0 0 230.15 130.49
  A 13.18 13.18 0.0 0 0 243.33 143.67
  A 13.18 13.18 0.0 0 0 256.51 130.49
  Z"
/>
</svg>
